<svg xmlns="http://www.w3.org/2000/svg" width="100%" height="100%" style="background: rgb(41, 157, 143);"><defs><pattern id="icon-pattern" patternUnits="userSpaceOnUse" width="132" height="132"><g transform="translate(0, 0)"><svg xmlns="http://www.w3.org/2000/svg" width="20" height="20" viewBox="0 0 24 24" fill="none" stroke="#ffffff" stroke-width="2" stroke-linecap="round" stroke-linejoin="round" class="lucide lucide-ice-cream-cone" opacity="0.5"><path d="m7 11 4.08 10.35a1 1 0 0 0 1.84 0L17 11"/><path d="M17 7A5 5 0 0 0 7 7"/><path d="M17 7a2 2 0 0 1 0 4H7a2 2 0 0 1 0-4"/></svg></g><g transform="translate(44, 0)"><svg xmlns="http://www.w3.org/2000/svg" width="20" height="20" viewBox="0 0 24 24" fill="none" stroke="#ffffff" stroke-width="2" stroke-linecap="round" stroke-linejoin="round" class="lucide lucide-ice-cream-bowl" opacity="0.5"><path d="M12 17c5 0 8-2.69 8-6H4c0 3.31 3 6 8 6m-4 4h8m-4-3v3M5.14 11a3.5 3.5 0 1 1 6.71 0"/><path d="M12.14 11a3.5 3.5 0 1 1 6.71 0"/><path d="M15.5 6.5a3.5 3.5 0 1 0-7 0"/></svg></g><g transform="translate(88, 0)"><svg xmlns="http://www.w3.org/2000/svg" width="20" height="20" viewBox="0 0 24 24" fill="none" stroke="#ffffff" stroke-width="2" stroke-linecap="round" stroke-linejoin="round" class="lucide lucide-cake-slice" opacity="0.5"><circle cx="9" cy="7" r="2"/><path d="M7.2 7.9 3 11v9c0 .6.4 1 1 1h16c.6 0 1-.4 1-1v-9c0-2-3-6-7-8l-3.6 2.6"/><path d="M16 13H3"/><path d="M16 17H3"/></svg></g><g transform="translate(0, 44)"><svg xmlns="http://www.w3.org/2000/svg" width="20" height="20" viewBox="0 0 24 24" fill="none" stroke="#ffffff" stroke-width="2" stroke-linecap="round" stroke-linejoin="round" class="lucide lucide-ice-cream-bowl" opacity="0.5"><path d="M12 17c5 0 8-2.69 8-6H4c0 3.31 3 6 8 6m-4 4h8m-4-3v3M5.14 11a3.5 3.5 0 1 1 6.71 0"/><path d="M12.14 11a3.5 3.5 0 1 1 6.71 0"/><path d="M15.5 6.5a3.5 3.5 0 1 0-7 0"/></svg></g><g transform="translate(44, 44)"><svg xmlns="http://www.w3.org/2000/svg" width="20" height="20" viewBox="0 0 24 24" fill="none" stroke="#ffffff" stroke-width="2" stroke-linecap="round" stroke-linejoin="round" class="lucide lucide-cake-slice" opacity="0.5"><circle cx="9" cy="7" r="2"/><path d="M7.2 7.9 3 11v9c0 .6.4 1 1 1h16c.6 0 1-.4 1-1v-9c0-2-3-6-7-8l-3.6 2.6"/><path d="M16 13H3"/><path d="M16 17H3"/></svg></g><g transform="translate(88, 44)"><svg xmlns="http://www.w3.org/2000/svg" width="20" height="20" viewBox="0 0 24 24" fill="none" stroke="#ffffff" stroke-width="2" stroke-linecap="round" stroke-linejoin="round" class="lucide lucide-ice-cream-cone" opacity="0.5"><path d="m7 11 4.08 10.35a1 1 0 0 0 1.84 0L17 11"/><path d="M17 7A5 5 0 0 0 7 7"/><path d="M17 7a2 2 0 0 1 0 4H7a2 2 0 0 1 0-4"/></svg></g><g transform="translate(0, 88)"><svg xmlns="http://www.w3.org/2000/svg" width="20" height="20" viewBox="0 0 24 24" fill="none" stroke="#ffffff" stroke-width="2" stroke-linecap="round" stroke-linejoin="round" class="lucide lucide-cake-slice" opacity="0.5"><circle cx="9" cy="7" r="2"/><path d="M7.2 7.9 3 11v9c0 .6.4 1 1 1h16c.6 0 1-.4 1-1v-9c0-2-3-6-7-8l-3.6 2.6"/><path d="M16 13H3"/><path d="M16 17H3"/></svg></g><g transform="translate(44, 88)"><svg xmlns="http://www.w3.org/2000/svg" width="20" height="20" viewBox="0 0 24 24" fill="none" stroke="#ffffff" stroke-width="2" stroke-linecap="round" stroke-linejoin="round" class="lucide lucide-ice-cream-cone" opacity="0.5"><path d="m7 11 4.08 10.35a1 1 0 0 0 1.84 0L17 11"/><path d="M17 7A5 5 0 0 0 7 7"/><path d="M17 7a2 2 0 0 1 0 4H7a2 2 0 0 1 0-4"/></svg></g><g transform="translate(88, 88)"><svg xmlns="http://www.w3.org/2000/svg" width="20" height="20" viewBox="0 0 24 24" fill="none" stroke="#ffffff" stroke-width="2" stroke-linecap="round" stroke-linejoin="round" class="lucide lucide-ice-cream-bowl" opacity="0.5"><path d="M12 17c5 0 8-2.69 8-6H4c0 3.31 3 6 8 6m-4 4h8m-4-3v3M5.14 11a3.5 3.5 0 1 1 6.71 0"/><path d="M12.14 11a3.5 3.5 0 1 1 6.71 0"/><path d="M15.5 6.5a3.5 3.5 0 1 0-7 0"/></svg></g></pattern></defs><rect width="100%" height="100%" fill="url(#icon-pattern)"/></svg>